<svg width="88" height="71" viewBox="0 0 88 71" fill="none" xmlns="http://www.w3.org/2000/svg">
<path d="M8.28 24C8.728 24.128 9.304 24.224 10.008 24.288C10.712 24.32 11.384 24.336 12.024 24.336C13.304 24.336 14.36 24.08 15.192 23.568C16.056 23.024 16.488 22.192 16.488 21.072C16.488 20.016 16.136 19.264 15.432 18.816C14.728 18.368 13.656 18.144 12.216 18.144H8.28V24ZM8.28 12.288H11.784C13.16 12.288 14.152 12.032 14.76 11.52C15.4 11.008 15.72 10.256 15.72 9.264C15.72 8.4 15.352 7.712 14.616 7.2C13.912 6.688 12.84 6.432 11.4 6.432C10.92 6.432 10.36 6.448 9.72 6.48C9.112 6.512 8.632 6.56 8.28 6.624V12.288ZM11.4 30.768C10.856 30.768 10.216 30.752 9.48 30.72C8.744 30.688 7.976 30.624 7.176 30.528C6.408 30.432 5.64 30.304 4.872 30.144C4.104 30.016 3.4 29.824 2.76 29.568C1 28.896 0.12 27.728 0.12 26.064V3.648C0.12 2.976 0.296 2.464 0.648 2.112C1.032 1.728 1.544 1.424 2.184 1.2C3.272 0.815998 4.632 0.543998 6.264 0.383998C7.896 0.191998 9.576 0.0959988 11.304 0.0959988C15.4 0.0959988 18.552 0.783998 20.76 2.16C22.968 3.536 24.072 5.664 24.072 8.544C24.072 9.984 23.656 11.232 22.824 12.288C21.992 13.312 20.872 14.064 19.464 14.544C21.064 14.992 22.392 15.808 23.448 16.992C24.536 18.176 25.08 19.664 25.08 21.456C25.08 24.624 23.896 26.976 21.528 28.512C19.192 30.016 15.816 30.768 11.4 30.768ZM28.3988 15.408C28.3988 12.912 28.7828 10.704 29.5508 8.784C30.3508 6.864 31.4228 5.264 32.7668 3.984C34.1428 2.672 35.7428 1.68 37.5668 1.008C39.4228 0.335999 41.4228 0 43.5668 0C45.7108 0 47.6948 0.335999 49.5188 1.008C51.3748 1.68 52.9908 2.672 54.3668 3.984C55.7428 5.264 56.8148 6.864 57.5828 8.784C58.3828 10.704 58.7828 12.912 58.7828 15.408C58.7828 17.904 58.3988 20.128 57.6308 22.08C56.8628 24 55.7908 25.616 54.4148 26.928C53.0708 28.208 51.4708 29.184 49.6148 29.856C47.7588 30.528 45.7428 30.864 43.5668 30.864C41.3908 30.864 39.3748 30.528 37.5188 29.856C35.6628 29.152 34.0628 28.144 32.7188 26.832C31.3748 25.52 30.3188 23.904 29.5508 21.984C28.7828 20.064 28.3988 17.872 28.3988 15.408ZM37.0388 15.408C37.0388 18.32 37.6308 20.496 38.8148 21.936C39.9988 23.376 41.5828 24.096 43.5668 24.096C45.5828 24.096 47.1828 23.376 48.3668 21.936C49.5508 20.496 50.1428 18.32 50.1428 15.408C50.1428 12.528 49.5508 10.368 48.3668 8.928C47.2148 7.488 45.6308 6.768 43.6148 6.768C41.6308 6.768 40.0308 7.488 38.8148 8.928C37.6308 10.336 37.0388 12.496 37.0388 15.408ZM61.1978 4.464C61.3578 4.016 61.5818 3.568 61.8698 3.12C62.1578 2.672 62.5098 2.272 62.9258 1.92C63.3738 1.536 63.8858 1.232 64.4618 1.008C65.0378 0.751998 65.6778 0.623998 66.3818 0.623998C67.3098 0.623998 68.1258 0.863998 68.8298 1.344C69.5338 1.792 70.2538 2.576 70.9898 3.696L74.7338 9.408L80.2538 1.248C80.5098 1.12 80.8618 1.008 81.3098 0.912C81.7898 0.783999 82.2538 0.719999 82.7018 0.719999C84.1738 0.719999 85.3258 1.072 86.1578 1.776C86.9898 2.48 87.4058 3.344 87.4058 4.368C87.4058 5.264 87.1658 6.064 86.6858 6.768C86.2378 7.472 85.6138 8.32 84.8138 9.312L79.8698 15.36L87.6938 26.544C87.4378 27.728 86.8778 28.672 86.0138 29.376C85.1818 30.048 84.0458 30.384 82.6058 30.384C81.6778 30.384 80.8778 30.16 80.2058 29.712C79.5338 29.232 78.8458 28.432 78.1418 27.312L74.2538 21.168L68.2058 30.288C67.9498 30.32 67.7098 30.336 67.4858 30.336C67.2618 30.368 67.0378 30.384 66.8138 30.384C64.9898 30.384 63.6458 30.016 62.7818 29.28C61.9178 28.544 61.4858 27.632 61.4858 26.544C61.4858 25.616 61.6778 24.816 62.0618 24.144C62.4778 23.44 63.0538 22.624 63.7898 21.696L68.8298 15.216L61.1978 4.464ZM8.28 64C8.728 64.128 9.304 64.224 10.008 64.288C10.712 64.32 11.384 64.336 12.024 64.336C13.304 64.336 14.36 64.08 15.192 63.568C16.056 63.024 16.488 62.192 16.488 61.072C16.488 60.016 16.136 59.264 15.432 58.816C14.728 58.368 13.656 58.144 12.216 58.144H8.28V64ZM8.28 52.288H11.784C13.16 52.288 14.152 52.032 14.76 51.52C15.4 51.008 15.72 50.256 15.72 49.264C15.72 48.4 15.352 47.712 14.616 47.2C13.912 46.688 12.84 46.432 11.4 46.432C10.92 46.432 10.36 46.448 9.72 46.48C9.112 46.512 8.632 46.56 8.28 46.624V52.288ZM11.4 70.768C10.856 70.768 10.216 70.752 9.48 70.72C8.744 70.688 7.976 70.624 7.176 70.528C6.408 70.432 5.64 70.304 4.872 70.144C4.104 70.016 3.4 69.824 2.76 69.568C1 68.896 0.12 67.728 0.12 66.064V43.648C0.12 42.976 0.296 42.464 0.648 42.112C1.032 41.728 1.544 41.424 2.184 41.2C3.272 40.816 4.632 40.544 6.264 40.384C7.896 40.192 9.576 40.096 11.304 40.096C15.4 40.096 18.552 40.784 20.76 42.16C22.968 43.536 24.072 45.664 24.072 48.544C24.072 49.984 23.656 51.232 22.824 52.288C21.992 53.312 20.872 54.064 19.464 54.544C21.064 54.992 22.392 55.808 23.448 56.992C24.536 58.176 25.08 59.664 25.08 61.456C25.08 64.624 23.896 66.976 21.528 68.512C19.192 70.016 15.816 70.768 11.4 70.768ZM28.3988 55.408C28.3988 52.912 28.7828 50.704 29.5508 48.784C30.3508 46.864 31.4228 45.264 32.7668 43.984C34.1428 42.672 35.7428 41.68 37.5668 41.008C39.4228 40.336 41.4228 40 43.5668 40C45.7108 40 47.6948 40.336 49.5188 41.008C51.3748 41.68 52.9908 42.672 54.3668 43.984C55.7428 45.264 56.8148 46.864 57.5828 48.784C58.3828 50.704 58.7828 52.912 58.7828 55.408C58.7828 57.904 58.3988 60.128 57.6308 62.08C56.8628 64 55.7908 65.616 54.4148 66.928C53.0708 68.208 51.4708 69.184 49.6148 69.856C47.7588 70.528 45.7428 70.864 43.5668 70.864C41.3908 70.864 39.3748 70.528 37.5188 69.856C35.6628 69.152 34.0628 68.144 32.7188 66.832C31.3748 65.52 30.3188 63.904 29.5508 61.984C28.7828 60.064 28.3988 57.872 28.3988 55.408ZM37.0388 55.408C37.0388 58.32 37.6308 60.496 38.8148 61.936C39.9988 63.376 41.5828 64.096 43.5668 64.096C45.5828 64.096 47.1828 63.376 48.3668 61.936C49.5508 60.496 50.1428 58.32 50.1428 55.408C50.1428 52.528 49.5508 50.368 48.3668 48.928C47.2148 47.488 45.6308 46.768 43.6148 46.768C41.6308 46.768 40.0308 47.488 38.8148 48.928C37.6308 50.336 37.0388 52.496 37.0388 55.408ZM61.1978 44.464C61.3578 44.016 61.5818 43.568 61.8698 43.12C62.1578 42.672 62.5098 42.272 62.9258 41.92C63.3738 41.536 63.8858 41.232 64.4618 41.008C65.0378 40.752 65.6778 40.624 66.3818 40.624C67.3098 40.624 68.1258 40.864 68.8298 41.344C69.5338 41.792 70.2538 42.576 70.9898 43.696L74.7338 49.408L80.2538 41.248C80.5098 41.12 80.8618 41.008 81.3098 40.912C81.7898 40.784 82.2538 40.72 82.7018 40.72C84.1738 40.72 85.3258 41.072 86.1578 41.776C86.9898 42.48 87.4058 43.344 87.4058 44.368C87.4058 45.264 87.1658 46.064 86.6858 46.768C86.2378 47.472 85.6138 48.32 84.8138 49.312L79.8698 55.36L87.6938 66.544C87.4378 67.728 86.8778 68.672 86.0138 69.376C85.1818 70.048 84.0458 70.384 82.6058 70.384C81.6778 70.384 80.8778 70.16 80.2058 69.712C79.5338 69.232 78.8458 68.432 78.1418 67.312L74.2538 61.168L68.2058 70.288C67.9498 70.32 67.7098 70.336 67.4858 70.336C67.2618 70.368 67.0378 70.384 66.8138 70.384C64.9898 70.384 63.6458 70.016 62.7818 69.28C61.9178 68.544 61.4858 67.632 61.4858 66.544C61.4858 65.616 61.6778 64.816 62.0618 64.144C62.4778 63.44 63.0538 62.624 63.7898 61.696L68.8298 55.216L61.1978 44.464Z" fill="black"/>
</svg>
